<svg width="25" height="25" viewBox="0 0 25 25" fill="none" xmlns="http://www.w3.org/2000/svg">
<path d="M8.57448 2.4997C8.75375 2.0566 9.06127 1.67713 9.45761 1.40994C9.85395 1.14274 10.3211 1 10.799 1C11.277 1 11.7441 1.14274 12.1405 1.40994C12.5368 1.67713 12.8443 2.0566 13.0236 2.4997C14.7979 2.98766 16.363 4.0446 17.4785 5.50818C18.5939 6.97176 19.1981 8.76105 19.1982 10.6012V16.2371L21.3963 19.5343C21.5169 19.715 21.5861 19.925 21.5967 20.142C21.6072 20.359 21.5587 20.5748 21.4562 20.7663C21.3537 20.9578 21.2011 21.118 21.0148 21.2296C20.8284 21.3412 20.6153 21.4001 20.398 21.4001H14.9566C14.8121 22.3997 14.3124 23.3138 13.5488 23.975C12.7852 24.6361 11.8091 25 10.799 25C9.78904 25 8.81285 24.6361 8.04929 23.975C7.28574 23.3138 6.78595 22.3997 6.64148 21.4001H1.20005C0.982825 21.4001 0.769663 21.3412 0.583308 21.2296C0.396953 21.118 0.244397 20.9578 0.141916 20.7663C0.0394351 20.5748 -0.00912594 20.359 0.00141327 20.142C0.0119525 19.925 0.0811966 19.715 0.201759 19.5343L2.39993 16.2371V10.6012C2.39993 6.73285 5.01565 3.47399 8.57448 2.4997ZM9.10242 21.4001C9.22635 21.7513 9.45613 22.0553 9.7601 22.2704C10.0641 22.4855 10.4273 22.601 10.7996 22.601C11.172 22.601 11.5352 22.4855 11.8392 22.2704C12.1432 22.0553 12.3729 21.7513 12.4969 21.4001H9.10122H9.10242ZM10.799 4.60187C9.20791 4.60187 7.68195 5.23395 6.55685 6.35905C5.43175 7.48415 4.79968 9.01011 4.79968 10.6012V16.6006C4.79973 16.8376 4.72959 17.0693 4.5981 17.2665L3.44262 19.0004H18.1543L16.9988 17.2665C16.8677 17.0692 16.798 16.8375 16.7984 16.6006V10.6012C16.7984 9.01011 16.1663 7.48415 15.0412 6.35905C13.9161 5.23395 12.3902 4.60187 10.799 4.60187Z" fill="#0D0D0D"/>
<circle cx="20" cy="5" r="5" fill="#ED6239"/>
</svg>
