<svg width="20" height="24" viewBox="0 0 20 24" fill="none" xmlns="http://www.w3.org/2000/svg">
<path fill-rule="evenodd" clip-rule="evenodd" d="M6.25 3.25C5.55964 3.25 5 3.80964 5 4.5C5 5.19036 5.55964 5.75 6.25 5.75C6.94036 5.75 7.5 5.19036 7.5 4.5C7.5 3.80964 6.94036 3.25 6.25 3.25ZM2.71338 3.25C3.22818 1.79351 4.61723 0.75 6.25 0.75C7.88277 0.75 9.27182 1.79351 9.78662 3.25H18.75C19.4404 3.25 20 3.80964 20 4.5C20 5.19036 19.4404 5.75 18.75 5.75H9.78662C9.27182 7.20649 7.88277 8.25 6.25 8.25C4.61723 8.25 3.22818 7.20649 2.71338 5.75H1.25C0.559644 5.75 0 5.19036 0 4.5C0 3.80964 0.559644 3.25 1.25 3.25H2.71338ZM13.75 10.75C13.0596 10.75 12.5 11.3096 12.5 12C12.5 12.6904 13.0596 13.25 13.75 13.25C14.4404 13.25 15 12.6904 15 12C15 11.3096 14.4404 10.75 13.75 10.75ZM10.2134 10.75C10.7282 9.29351 12.1172 8.25 13.75 8.25C15.3828 8.25 16.7718 9.29351 17.2866 10.75H18.75C19.4404 10.75 20 11.3096 20 12C20 12.6904 19.4404 13.25 18.75 13.25H17.2866C16.7718 14.7065 15.3828 15.75 13.75 15.75C12.1172 15.75 10.7282 14.7065 10.2134 13.25H1.25C0.559644 13.25 0 12.6904 0 12C0 11.3096 0.559644 10.75 1.25 10.75H10.2134ZM6.25 18.25C5.55964 18.25 5 18.8096 5 19.5C5 20.1904 5.55964 20.75 6.25 20.75C6.94036 20.75 7.5 20.1904 7.5 19.5C7.5 18.8096 6.94036 18.25 6.25 18.25ZM2.71338 18.25C3.22818 16.7935 4.61723 15.75 6.25 15.75C7.88277 15.75 9.27182 16.7935 9.78662 18.25H18.75C19.4404 18.25 20 18.8096 20 19.5C20 20.1904 19.4404 20.75 18.75 20.75H9.78662C9.27182 22.2065 7.88277 23.25 6.25 23.25C4.61723 23.25 3.22818 22.2065 2.71338 20.75H1.25C0.559644 20.75 0 20.1904 0 19.5C0 18.8096 0.559644 18.25 1.25 18.25H2.71338Z" fill="#0D0D0D"/>
</svg>
