<svg width="13" height="13" viewBox="0 0 13 13" fill="none" xmlns="http://www.w3.org/2000/svg">
<path d="M6.5 2.75C6.33424 2.75 6.17527 2.81585 6.05806 2.93306C5.94085 3.05027 5.875 3.20924 5.875 3.375V9.625C5.875 9.79076 5.94085 9.94973 6.05806 10.0669C6.17527 10.1842 6.33424 10.25 6.5 10.25C6.66576 10.25 6.82473 10.1842 6.94194 10.0669C7.05915 9.94973 7.125 9.79076 7.125 9.625V3.375C7.125 3.20924 7.05915 3.05027 6.94194 2.93306C6.82473 2.81585 6.66576 2.75 6.5 2.75ZM3.375 6.5C3.20924 6.5 3.05027 6.56585 2.93306 6.68306C2.81585 6.80027 2.75 6.95924 2.75 7.125V9.625C2.75 9.79076 2.81585 9.94973 2.93306 10.0669C3.05027 10.1842 3.20924 10.25 3.375 10.25C3.54076 10.25 3.69973 10.1842 3.81694 10.0669C3.93415 9.94973 4 9.79076 4 9.625V7.125C4 6.95924 3.93415 6.80027 3.81694 6.68306C3.69973 6.56585 3.54076 6.5 3.375 6.5ZM9.625 5.25C9.45924 5.25 9.30027 5.31585 9.18306 5.43306C9.06585 5.55027 9 5.70924 9 5.875V9.625C9 9.79076 9.06585 9.94973 9.18306 10.0669C9.30027 10.1842 9.45924 10.25 9.625 10.25C9.79076 10.25 9.94973 10.1842 10.0669 10.0669C10.1842 9.94973 10.25 9.79076 10.25 9.625V5.875C10.25 5.70924 10.1842 5.55027 10.0669 5.43306C9.94973 5.31585 9.79076 5.25 9.625 5.25ZM10.875 0.25H2.125C1.62772 0.25 1.15081 0.447544 0.799175 0.799175C0.447544 1.15081 0.25 1.62772 0.25 2.125V10.875C0.25 11.3723 0.447544 11.8492 0.799175 12.2008C1.15081 12.5525 1.62772 12.75 2.125 12.75H10.875C11.3723 12.75 11.8492 12.5525 12.2008 12.2008C12.5525 11.8492 12.75 11.3723 12.75 10.875V2.125C12.75 1.62772 12.5525 1.15081 12.2008 0.799175C11.8492 0.447544 11.3723 0.25 10.875 0.25ZM11.5 10.875C11.5 11.0408 11.4342 11.1997 11.3169 11.3169C11.1997 11.4342 11.0408 11.5 10.875 11.5H2.125C1.95924 11.5 1.80027 11.4342 1.68306 11.3169C1.56585 11.1997 1.5 11.0408 1.5 10.875V2.125C1.5 1.95924 1.56585 1.80027 1.68306 1.68306C1.80027 1.56585 1.95924 1.5 2.125 1.5H10.875C11.0408 1.5 11.1997 1.56585 11.3169 1.68306C11.4342 1.80027 11.5 1.95924 11.5 2.125V10.875Z" fill="#0D0D0D"/>
</svg>
