<svg width="13" height="9" viewBox="0 0 13 9" fill="none" xmlns="http://www.w3.org/2000/svg">
<path d="M1.3189 7.18125C1.25946 7.12435 1.18937 7.07975 1.11265 7.05C0.960482 6.98749 0.789809 6.98749 0.637645 7.05C0.560926 7.07975 0.490835 7.12435 0.431395 7.18125C0.374495 7.24069 0.329892 7.31078 0.300145 7.3875C0.252283 7.50132 0.239207 7.62676 0.262565 7.74801C0.285924 7.86925 0.344672 7.98086 0.431395 8.06875C0.492146 8.12396 0.561905 8.16835 0.637645 8.2C0.712458 8.23307 0.793351 8.25014 0.875145 8.25014C0.95694 8.25014 1.03783 8.23307 1.11265 8.2C1.18839 8.16835 1.25814 8.12396 1.3189 8.06875C1.40562 7.98086 1.46437 7.86925 1.48773 7.74801C1.51108 7.62676 1.49801 7.50132 1.45015 7.3875C1.4204 7.31078 1.3758 7.24069 1.3189 7.18125V7.18125ZM3.37515 2H12.1251C12.2909 2 12.4499 1.93415 12.5671 1.81694C12.6843 1.69973 12.7501 1.54076 12.7501 1.375C12.7501 1.20924 12.6843 1.05027 12.5671 0.933058C12.4499 0.815848 12.2909 0.75 12.1251 0.75H3.37515C3.20939 0.75 3.05041 0.815848 2.9332 0.933058C2.81599 1.05027 2.75015 1.20924 2.75015 1.375C2.75015 1.54076 2.81599 1.69973 2.9332 1.81694C3.05041 1.93415 3.20939 2 3.37515 2ZM1.3189 4.05625C1.23101 3.96953 1.1194 3.91078 0.998154 3.88742C0.87691 3.86406 0.751465 3.87714 0.637645 3.925C0.561905 3.95665 0.492146 4.00104 0.431395 4.05625C0.374495 4.11569 0.329892 4.18578 0.300145 4.2625C0.26708 4.33731 0.25 4.41821 0.25 4.5C0.25 4.58179 0.26708 4.66269 0.300145 4.7375C0.331796 4.81324 0.376188 4.883 0.431395 4.94375C0.492146 4.99896 0.561905 5.04335 0.637645 5.075C0.712458 5.10807 0.793351 5.12515 0.875145 5.12515C0.95694 5.12515 1.03783 5.10807 1.11265 5.075C1.18839 5.04335 1.25814 4.99896 1.3189 4.94375C1.3741 4.883 1.41849 4.81324 1.45015 4.7375C1.48321 4.66269 1.50029 4.58179 1.50029 4.5C1.50029 4.41821 1.48321 4.33731 1.45015 4.2625C1.4204 4.18578 1.3758 4.11569 1.3189 4.05625V4.05625ZM12.1251 3.875H3.37515C3.20939 3.875 3.05041 3.94085 2.9332 4.05806C2.81599 4.17527 2.75015 4.33424 2.75015 4.5C2.75015 4.66576 2.81599 4.82473 2.9332 4.94194C3.05041 5.05915 3.20939 5.125 3.37515 5.125H12.1251C12.2909 5.125 12.4499 5.05915 12.5671 4.94194C12.6843 4.82473 12.7501 4.66576 12.7501 4.5C12.7501 4.33424 12.6843 4.17527 12.5671 4.05806C12.4499 3.94085 12.2909 3.875 12.1251 3.875ZM1.3189 0.93125C1.25946 0.87435 1.18937 0.829746 1.11265 0.8C0.998826 0.752138 0.87338 0.739061 0.752137 0.76242C0.630893 0.785779 0.519285 0.844526 0.431395 0.93125C0.376188 0.992001 0.331796 1.06176 0.300145 1.1375C0.26708 1.21231 0.25 1.29321 0.25 1.375C0.25 1.45679 0.26708 1.53769 0.300145 1.6125C0.331796 1.68824 0.376188 1.758 0.431395 1.81875C0.492146 1.87396 0.561905 1.91835 0.637645 1.95C0.751465 1.99786 0.87691 2.01094 0.998154 1.98758C1.1194 1.96422 1.23101 1.90547 1.3189 1.81875C1.3741 1.758 1.41849 1.68824 1.45015 1.6125C1.48321 1.53769 1.50029 1.45679 1.50029 1.375C1.50029 1.29321 1.48321 1.21231 1.45015 1.1375C1.41849 1.06176 1.3741 0.992001 1.3189 0.93125V0.93125ZM12.1251 7H3.37515C3.20939 7 3.05041 7.06585 2.9332 7.18306C2.81599 7.30027 2.75015 7.45924 2.75015 7.625C2.75015 7.79076 2.81599 7.94973 2.9332 8.06694C3.05041 8.18415 3.20939 8.25 3.37515 8.25H12.1251C12.2909 8.25 12.4499 8.18415 12.5671 8.06694C12.6843 7.94973 12.7501 7.79076 12.7501 7.625C12.7501 7.45924 12.6843 7.30027 12.5671 7.18306C12.4499 7.06585 12.2909 7 12.1251 7Z" fill="#0D0D0D"/>
</svg>
