<svg width="13" height="13" viewBox="0 0 13 13" fill="none" xmlns="http://www.w3.org/2000/svg">
<path fill-rule="evenodd" clip-rule="evenodd" d="M6.5 1.5C6.15482 1.5 5.875 1.77982 5.875 2.125C5.875 3.18266 4.59624 3.71234 3.84836 2.96446C3.60429 2.72038 3.20856 2.72038 2.96448 2.96446C2.7204 3.20854 2.7204 3.60427 2.96448 3.84834C3.71239 4.59625 3.18264 5.875 2.125 5.875C1.77982 5.875 1.5 6.15482 1.5 6.5C1.5 6.84518 1.77982 7.125 2.125 7.125C3.18272 7.125 3.71227 8.40382 2.96444 9.15165C2.72036 9.39573 2.72036 9.79146 2.96444 10.0355C3.20852 10.2796 3.60425 10.2796 3.84832 10.0355C4.59619 9.28767 5.875 9.81729 5.875 10.875C5.875 11.2202 6.15482 11.5 6.5 11.5C6.84518 11.5 7.125 11.2202 7.125 10.875C7.125 9.81732 8.40377 9.28764 9.15167 10.0355C9.39574 10.2796 9.79147 10.2796 10.0355 10.0355C10.2796 9.79145 10.2796 9.39572 10.0355 9.15164C9.28769 8.40379 9.81731 7.125 10.875 7.125C11.2202 7.125 11.5 6.84518 11.5 6.5C11.5 6.15482 11.2202 5.875 10.875 5.875C9.8174 5.875 9.28758 4.59628 10.0355 3.84835C10.2796 3.60428 10.2796 3.20855 10.0355 2.96447C9.79143 2.72039 9.3957 2.72039 9.15163 2.96447C8.40373 3.71237 7.125 3.18262 7.125 2.125C7.125 1.77982 6.84518 1.5 6.5 1.5ZM4.6301 1.98564C4.7014 1.01519 5.51134 0.25 6.5 0.25C7.48866 0.25 8.2986 1.01519 8.3699 1.98564C9.10653 1.34985 10.2203 1.3815 10.9194 2.08059C11.6185 2.77968 11.6501 3.89347 11.0143 4.6301C11.9848 4.70138 12.75 5.51133 12.75 6.5C12.75 7.48866 11.9848 8.2986 11.0144 8.3699C11.6502 9.10653 11.6185 10.2203 10.9194 10.9194C10.2203 11.6185 9.10653 11.6501 8.3699 11.0143C8.29862 11.9848 7.48867 12.75 6.5 12.75C5.51133 12.75 4.70138 11.9848 4.6301 11.0143C3.89347 11.6502 2.77966 11.6185 2.08056 10.9194C1.38146 10.2203 1.34982 9.10653 1.98564 8.3699C1.01519 8.2986 0.25 7.48866 0.25 6.5C0.25 5.51133 1.01521 4.70138 1.98568 4.6301C1.34986 3.89347 1.3815 2.77967 2.0806 2.08058C2.77969 1.38149 3.89347 1.34984 4.6301 1.98564Z" fill="white"/>
<path fill-rule="evenodd" clip-rule="evenodd" d="M6.5 5.25C6.16848 5.25 5.85054 5.3817 5.61612 5.61612C5.3817 5.85054 5.25 6.16848 5.25 6.5C5.25 6.83152 5.3817 7.14946 5.61612 7.38388C5.85054 7.6183 6.16848 7.75 6.5 7.75C6.83152 7.75 7.14946 7.6183 7.38388 7.38388C7.6183 7.14946 7.75 6.83152 7.75 6.5C7.75 6.16848 7.6183 5.85054 7.38388 5.61612C7.14946 5.3817 6.83152 5.25 6.5 5.25ZM4.73223 4.73223C5.20107 4.26339 5.83696 4 6.5 4C7.16304 4 7.79893 4.26339 8.26777 4.73223C8.73661 5.20107 9 5.83696 9 6.5C9 7.16304 8.73661 7.79893 8.26777 8.26777C7.79893 8.73661 7.16304 9 6.5 9C5.83696 9 5.20107 8.73661 4.73223 8.26777C4.26339 7.79893 4 7.16304 4 6.5C4 5.83696 4.26339 5.20107 4.73223 4.73223Z" fill="white"/>
</svg>
